{
  "accessors": [
    {
      "bufferView": 2,
      "componentType": 5126,
      "count": 2075,
      "max": [
        1.2180999517440796,
        0.6752730011940002,
        6.23425817489624
      ],
      "min": [
        -1.2077369689941406,
        -0.7565010190010071,
        0.19741299748420715
      ],
      "type": "VEC3"
    },
    {
      "bufferView": 2,
      "byteOffset": 24900,
      "componentType": 5126,
      "count": 2075,
      "max": [
        0.9996150135993958,
        0.9999856352806091,
        0.9999985098838806
      ],
      "min": [
        -0.9995532631874084,
        -0.9995495676994324,
        -0.996167778968811
      ],
      "type": "VEC3"
    },
    {
      "bufferView": 3,
      "componentType": 5126,
      "count": 2075,
      "max": [
        0.9999885559082031,
        0.9999963641166687,
        0.9997016787528992,
        1.0
      ],
      "min": [
        -0.9999895095825195,
        -0.9999915361404419,
        -0.9968676567077637,
        -1.0
      ],
      "type": "VEC4"
    },
    {
      "bufferView": 1,
      "componentType": 5126,
      "count": 2075,
      "max": [
        0.9942150115966797,
        0.9979619979858398
      ],
      "min": [
        0.0028840000741183758,
        -0.0002209999947808683
      ],
      "type": "VEC2"
    },
    {
      "bufferView": 0,
      "componentType": 5125,
      "count": 7857,
      "type": "SCALAR"
    },
    {
      "bufferView": 2,
      "byteOffset": 49800,
      "componentType": 5126,
      "count": 96,
      "max": [
        0.6740260124206543,
        0.20147499442100525,
        4.97249698638916
      ],
      "min": [
        -0.6751890182495117,
        -0.6316940188407898,
        2.8575780391693115
      ],
      "type": "VEC3"
    },
    {
      "bufferView": 2,
      "byteOffset": 50952,
      "componentType": 5126,
      "count": 96,
      "max": [
        0.9918971061706543,
        0.9918966293334961,
        0.3817299008369446
      ],
      "min": [
        -0.9918968677520752,
        -0.9918966293334961,
        -0.9810481071472168
      ],
      "type": "VEC3"
    },
    {
      "bufferView": 1,
      "byteOffset": 16600,
      "componentType": 5126,
      "count": 96,
      "max": [
        0.0,
        0.0
      ],
      "min": [
        0.0,
        0.0
      ],
      "type": "VEC2"
    },
    {
      "bufferView": 0,
      "byteOffset": 31428,
      "componentType": 5125,
      "count": 252,
      "type": "SCALAR"
    },
    {
      "bufferView": 2,
      "byteOffset": 52104,
      "componentType": 5126,
      "count": 2608,
      "max": [
        1.2355430126190186,
        0.4256080090999603,
        6.207170009613037
      ],
      "min": [
        -1.23540198802948,
        -0.6715310215950012,
        -0.006287999916821718
      ],
      "type": "VEC3"
    },
    {
      "bufferView": 2,
      "byteOffset": 83400,
      "componentType": 5126,
      "count": 2608,
      "max": [
        0.9997263550758362,
        0.999728262424469,
        1.0
      ],
      "min": [
        -0.9998527765274048,
        -0.9997962117195129,
        -0.9998309016227722
      ],
      "type": "VEC3"
    },
    {
      "bufferView": 3,
      "byteOffset": 33200,
      "componentType": 5126,
      "count": 2608,
      "max": [
        0.9999887943267822,
        0.9995871186256409,
        0.9990120530128479,
        1.0
      ],
      "min": [
        -0.9998809099197388,
        -0.9999526739120483,
        -0.9998229742050171,
        -1.0
      ],
      "type": "VEC4"
    },
    {
      "bufferView": 1,
      "byteOffset": 17368,
      "componentType": 5126,
      "count": 2608,
      "max": [
        0.9967169761657715,
        0.9992799758911133
      ],
      "min": [
        0.005386999808251858,
        -0.0002209999947808683
      ],
      "type": "VEC2"
    },
    {
      "bufferView": 0,
      "byteOffset": 32436,
      "componentType": 5125,
      "count": 10935,
      "type": "SCALAR"
    }
  ],
  "asset": {
    "extras": {
      "author": "Nate (https://sketchfab.com/naet)",
      "license": "CC-BY-NC-4.0 (http://creativecommons.org/licenses/by-nc/4.0/)",
      "source": "https://sketchfab.com/3d-models/norn-cultural-armor-test-7f3fced661e346e6a0ecfbd4cb710e2a",
      "title": "Norn Cultural Armor Test"
    },
    "generator": "Sketchfab-12.66.0",
    "version": "2.0"
  },
  "bufferViews": [
    {
      "buffer": 0,
      "byteLength": 76176,
      "name": "floatBufferViews",
      "target": 34963
    },
    {
      "buffer": 0,
      "byteLength": 38232,
      "byteOffset": 76176,
      "byteStride": 8,
      "name": "floatBufferViews",
      "target": 34962
    },
    {
      "buffer": 0,
      "byteLength": 114696,
      "byteOffset": 114408,
      "byteStride": 12,
      "name": "floatBufferViews",
      "target": 34962
    },
    {
      "buffer": 0,
      "byteLength": 74928,
      "byteOffset": 229104,
      "byteStride": 16,
      "name": "floatBufferViews",
      "target": 34962
    }
  ],
  "buffers": [
    {
      "byteLength": 304032,
      "uri": "scene.bin"
    }
  ],
  "images": [
    {
      "uri": "textures/blinn1SG_baseColor.png"
    },
    {
      "uri": "textures/blinn1SG_emissive.png"
    },
    {
      "uri": "textures/blinn1SG_normal.png"
    },
    {
      "uri": "textures/blinn2SG_baseColor.png"
    }
  ],
  "materials": [
    {
      "alphaCutoff": 0.13,
      "alphaMode": "MASK",
      "doubleSided": true,
      "emissiveFactor": [
        1.0,
        1.0,
        1.0
      ],
      "emissiveTexture": {
        "index": 1
      },
      "name": "blinn1SG",
      "normalTexture": {
        "index": 2
      },
      "pbrMetallicRoughness": {
        "baseColorTexture": {
          "index": 0
        },
        "metallicFactor": 0.0,
        "roughnessFactor": 0.6
      }
    },
    {
      "alphaCutoff": 0.01,
      "alphaMode": "MASK",
      "doubleSided": true,
      "emissiveFactor": [
        1.0,
        1.0,
        1.0
      ],
      "emissiveTexture": {
        "index": 1
      },
      "name": "blinn2SG",
      "normalTexture": {
        "index": 2
      },
      "pbrMetallicRoughness": {
        "baseColorTexture": {
          "index": 3
        },
        "metallicFactor": 0.0,
        "roughnessFactor": 0.6
      }
    }
  ],
  "meshes": [
    {
      "name": "Object_0",
      "primitives": [
        {
          "attributes": {
            "NORMAL": 1,
            "POSITION": 0,
            "TANGENT": 2,
            "TEXCOORD_0": 3
          },
          "indices": 4,
          "material": 0,
          "mode": 4
        }
      ]
    },
    {
      "name": "Object_1",
      "primitives": [
        {
          "attributes": {
            "NORMAL": 6,
            "POSITION": 5,
            "TEXCOORD_0": 7
          },
          "indices": 8,
          "material": 1,
          "mode": 4
        }
      ]
    },
    {
      "name": "Object_2",
      "primitives": [
        {
          "attributes": {
            "NORMAL": 10,
            "POSITION": 9,
            "TANGENT": 11,
            "TEXCOORD_0": 12
          },
          "indices": 13,
          "material": 1,
          "mode": 4
        }
      ]
    }
  ],
  "nodes": [
    {
      "children": [
        1
      ],
      "matrix": [
        1.0,
        0.0,
        0.0,
        0.0,
        0.0,
        2.220446049250313e-16,
        -1.0,
        0.0,
        0.0,
        1.0,
        2.220446049250313e-16,
        0.0,
        0.0,
        0.0,
        0.0,
        1.0
      ],
      "name": "Sketchfab_model"
    },
    {
      "children": [
        2,
        3,
        4
      ],
      "name": "6bece8c8c5f740beadaf8df7cca35db4.obj.cleaner"
    },
    {
      "mesh": 0,
      "name": "Object_2"
    },
    {
      "mesh": 1,
      "name": "Object_3"
    },
    {
      "mesh": 2,
      "name": "Object_4"
    }
  ],
  "samplers": [
    {
      "magFilter": 9729,
      "minFilter": 9987,
      "wrapS": 10497,
      "wrapT": 10497
    }
  ],
  "scene": 0,
  "scenes": [
    {
      "name": "Sketchfab_Scene",
      "nodes": [
        0
      ]
    }
  ],
  "textures": [
    {
      "sampler": 0,
      "source": 0
    },
    {
      "sampler": 0,
      "source": 1
    },
    {
      "sampler": 0,
      "source": 2
    },
    {
      "sampler": 0,
      "source": 3
    }
  ]
}
